<?xml version="1.0" encoding="utf-8"?>
<!-- Generator: Adobe Illustrator 27.3.1, SVG Export Plug-In . SVG Version: 6.00 Build 0)  -->
<svg version="1.1" id="Слой_1" xmlns="http://www.w3.org/2000/svg" xmlns:xlink="http://www.w3.org/1999/xlink" x="0px" y="0px"
	 viewBox="0 0 132 35" style="enable-background:new 0 0 132 35;" xml:space="preserve">
<style type="text/css">
	.st0{fill:#FFFFFF;}
	.st1{fill:url(#SVGID_1_);}
	.st2{fill:#82B93A;}
</style>
<path class="st0" d="M7.2,7.3c0,0.3,0.3,0.6,0.6,0.6h3.6c0.3,0,0.6-0.3,0.6-0.6V3.9c0-0.3-0.3-0.6-0.6-0.6H7.8
	c-0.3,0-0.6,0.3-0.6,0.6C7.2,3.9,7.2,7.3,7.2,7.3z"/>
<path class="st0" d="M13.7,11c0-1.1-0.5-2.2-2.2-2.2s-4.2,0-4.2,0s-2.1-0.4-2.1,3.4s-1.8,8-1.8,9.4c0,1.3,0,4.3,0,5.4
	c0,1.1-0.2,2.7,2.7,2.7s4.4,0,4.4,0s1.7,0.4,1.7-1.7c0-2.2,0-8.7,0-8.7s1.6,0.1,1.6-1.6C13.7,16.1,13.7,11,13.7,11z"/>
<linearGradient id="SVGID_1_" gradientUnits="userSpaceOnUse" x1="13.6125" y1="217.4" x2="19.3875" y2="217.4" gradientTransform="matrix(1 0 0 1 0 -204)">
	<stop  offset="0" style="stop-color:#FFFFFF"/>
	<stop  offset="1" style="stop-color:#82B93A"/>
</linearGradient>
<path class="st1" d="M8.8,11.2c1.8,1.7,3.6,3.4,5.3,5.2c0.4,0.4,0.8,0.8,1.2,1.1c0.5,0.5,1.5,0.5,2,0c1.8-1.7,3.6-3.4,5.3-5.2
	c0.4-0.4,0.7-0.7,1.1-1.1c0.5-0.5,0.5-1.4,0-1.9s-1.5-0.5-2,0c-1.8,1.7-3.6,3.4-5.3,5.2c-0.4,0.4-0.7,0.7-1.1,1.1c0.7,0,1.3,0,2,0
	c-1.8-1.7-3.6-3.4-5.3-5.2c-0.4-0.4-0.8-0.8-1.2-1.1c-0.5-0.5-1.5-0.5-2,0C8.2,9.8,8.2,10.7,8.8,11.2z"/>
<path class="st2" d="M26,7.3c0,0.3-0.3,0.6-0.6,0.6h-3.6c-0.3,0-0.6-0.3-0.6-0.6V3.9c0-0.3,0.3-0.6,0.6-0.6h3.6
	c0.3,0,0.6,0.3,0.6,0.6V7.3z"/>
<path class="st2" d="M19.5,11c0-1.1,0.5-2.2,2.2-2.2s4.2,0,4.2,0S28,8.4,28,12.2s1.8,8,1.8,9.4c0,1.3,0,4.3,0,5.4
	c0,1.1,0.2,2.7-2.7,2.7s-4.4,0-4.4,0S21,30.1,21,28c0-2.2,0-8.7,0-8.7s-1.6,0.1-1.6-1.6C19.5,16.1,19.5,11,19.5,11z"/>
<path class="st0" d="M42.2,28c-0.5,0-1,0-1.4-0.1c-0.5-0.1-0.9-0.3-1.2-0.6c-0.4-0.4-0.7-0.8-0.7-1.2c-0.1-0.4-0.1-0.9-0.1-1.3V9.2
	c0-0.4,0.1-0.8,0.2-1.3c0.1-0.4,0.3-0.8,0.6-1c0.4-0.4,0.8-0.6,1.3-0.7s1-0.1,1.4-0.1h14.5v3.3H44.6c-0.2,0-0.4,0-0.6,0.1
	c-0.2,0-0.4,0.1-0.6,0.3c-0.2,0.2-0.3,0.3-0.3,0.5C43,10.4,43,10.6,43,10.7v4.4h13.5v3.3H43.1v5.1c0,0.4,0.1,0.7,0.3,0.8
	c0.1,0.1,0.3,0.2,0.6,0.3c0.3,0,0.5,0.1,0.9,0.1H57V28H42.2z"/>
<path class="st0" d="M77.4,6.1h3.8V28h-3.8V6.1z"/>
<path class="st0" d="M90.1,28c-0.5,0-0.9,0-1.4-0.1c-0.5,0-0.9-0.1-1.4-0.3c-0.5-0.1-0.9-0.4-1.3-0.6c-0.5-0.3-0.8-0.6-1.2-1.1
	c-0.5-0.8-0.9-1.7-1.1-2.8c-0.1-1.1-0.2-2.2-0.2-3.3c0-0.8,0-1.5,0.1-2.2s0.1-1.3,0.3-1.8c0.1-0.6,0.3-1.1,0.6-1.6
	c0.3-0.4,0.7-0.9,1.1-1.3c0.5-0.4,1-0.7,1.6-0.9s1.1-0.4,1.7-0.4c0.6-0.1,1.1-0.1,1.7-0.2c0.5,0,1,0,1.5,0c1,0,2,0.1,3,0.2
	c1,0.1,1.8,0.4,2.6,0.9c0.5,0.3,0.9,0.6,1.2,1.1c0.3,0.4,0.6,0.8,0.7,1.3c0.2,0.4,0.3,1,0.4,1.5c0.1,0.5,0.1,1,0.1,1.5
	c0,0.4-0.1,0.8-0.1,1.3c-0.1,0.4-0.3,0.8-0.7,1.2c-0.3,0.3-0.5,0.4-0.9,0.5c-0.3,0.1-0.7,0.1-1,0.1h-10c0,0.4,0,0.8,0.1,1.2
	c0.1,0.4,0.1,0.8,0.1,1.1c0.1,0.4,0.3,0.8,0.5,1c0.3,0.3,0.5,0.4,0.9,0.6c0.3,0.1,0.7,0.3,1,0.3c0.3,0.1,0.7,0.1,1.1,0.1h8.6v2.8
	L90.1,28L90.1,28z M95.5,18.1c0.3,0,0.6-0.1,0.7-0.3c0.1-0.2,0.1-0.4,0.1-0.6c0-0.5-0.1-1-0.3-1.3c-0.2-0.4-0.5-0.6-0.8-0.9
	c-0.5-0.4-1-0.6-1.6-0.6c-0.6-0.1-1.1-0.1-1.7-0.1c-0.3,0-0.5,0-0.9,0s-0.6,0.1-0.9,0.1c-0.3,0.1-0.7,0.2-0.9,0.3
	c-0.3,0.1-0.6,0.4-0.9,0.6c-0.4,0.4-0.6,0.8-0.7,1.3c-0.1,0.4-0.1,1-0.1,1.5H95.5z"/>
<path class="st0" d="M104.1,28V14.2h-2.4v-2.8h2.4c0-0.3,0-0.6,0.1-1s0.1-0.8,0.3-1.1c0.1-0.4,0.3-0.8,0.5-1.1
	c0.2-0.4,0.5-0.7,0.9-1s0.9-0.6,1.5-0.8c0.5-0.2,1.1-0.3,1.8-0.4c0.6-0.1,1.3-0.1,1.8-0.2c0.6,0,1.2,0,1.7,0v2.7c-1,0-1.7,0-2.3,0.1
	c-0.6,0.1-1.1,0.2-1.4,0.4s-0.5,0.4-0.7,0.8c-0.2,0.4-0.3,0.9-0.3,1.5h4.7v2.9H108V28H104.1z"/>
<path class="st0" d="M122.3,28c-1.2,0-2.1-0.1-2.8-0.3c-0.7-0.2-1.3-0.5-1.8-0.9c-0.6-0.4-1-1-1.3-1.7c-0.3-0.6-0.5-1.5-0.5-2.6
	v-8.4h-2.4v-2.8h2.4V6.1h3.8v5.3h4.8v2.8h-4.8v6.6c0,0.3,0,0.6,0,1c0,0.3,0,0.6,0.1,1c0.1,0.3,0.1,0.6,0.3,0.9
	c0.1,0.3,0.3,0.6,0.7,0.8c0.5,0.4,0.9,0.6,1.5,0.6c0.6,0.1,1.1,0.1,1.4,0.1h0.9V28L122.3,28L122.3,28z"/>
<path class="st0" d="M59.6,28V6.1h3.8V28H59.6z M71.6,28l-5.9-6.1c-0.3-0.3-0.5-0.6-0.8-1s-0.4-0.9-0.4-1.5s0.1-1.1,0.4-1.5
	s0.5-0.7,0.8-1l5.1-5.5h4.4l-6.5,6.7c-0.1,0.2-0.3,0.3-0.4,0.5s-0.1,0.4-0.1,0.7c0,0.3,0.1,0.5,0.3,0.8c0.1,0.3,0.3,0.5,0.6,0.8
	l7,7.1L71.6,28L71.6,28z"/>
<path class="st0" d="M66.6,16L62,20.5v4l7.9-7.5"/>
</svg>
