<svg width="34" height="33" viewBox="0 0 34 33" fill="none" xmlns="http://www.w3.org/2000/svg">
<g clip-path="url(#clip0_41_340)">
<path fill-rule="evenodd" clip-rule="evenodd" d="M10.6004 6.74878V5.46878C10.6004 3.34801 12.3196 1.62878 14.4404 1.62878H19.5604C21.6811 1.62878 23.4004 3.34801 23.4004 5.46878V6.74878H29.8004C31.9211 6.74878 33.6404 8.46801 33.6404 10.5888V15.3355C33.6404 16.45 33.1587 17.4844 32.3585 18.1995C32.3597 18.2224 32.3604 18.2455 32.3604 18.2688V28.5088C32.3604 30.6296 30.6411 32.3488 28.5204 32.3488H5.48035C3.35958 32.3488 1.64035 30.6296 1.64035 28.5088L1.64035 18.2688C1.64035 18.2455 1.64097 18.2224 1.6422 18.1995C0.84196 17.4844 0.360352 16.45 0.360352 15.3355L0.360352 10.5888C0.360352 8.46801 2.07958 6.74878 4.20035 6.74878H10.6004ZM13.1604 5.46878C13.1604 4.76186 13.7334 4.18878 14.4404 4.18878H19.5604C20.2673 4.18878 20.8404 4.76186 20.8404 5.46878V6.74878L13.1604 6.74878V5.46878ZM20.7305 23.0243L29.8004 19.4612V28.5088C29.8004 29.2157 29.2273 29.7888 28.5204 29.7888H5.48035C4.77343 29.7888 4.20035 29.2157 4.20035 28.5088L4.20035 19.4612L13.2702 23.0243C13.6808 24.703 15.1951 25.9488 17.0004 25.9488C18.8056 25.9488 20.3199 24.703 20.7305 23.0243ZM18.2804 22.0796C18.28 22.0964 18.2799 22.1132 18.2802 22.13C18.2689 22.8271 17.7002 23.3888 17.0004 23.3888C16.3005 23.3888 15.7318 22.8271 15.7205 22.13C15.7208 22.1132 15.7207 22.0964 15.7204 22.0796V20.8288H18.2804V22.0796ZM20.8404 20.2307L30.2684 16.5268C30.7582 16.3344 31.0804 15.8617 31.0804 15.3355V10.5888C31.0804 9.88186 30.5073 9.30878 29.8004 9.30878H4.20035C3.49343 9.30878 2.92035 9.88186 2.92035 10.5888V15.3355C2.92035 15.8617 3.24248 16.3344 3.73231 16.5268L13.1604 20.2307V19.5488C13.1604 18.8419 13.7334 18.2688 14.4404 18.2688H19.5604C20.2673 18.2688 20.8404 18.8419 20.8404 19.5488V20.2307Z" fill="#82B93A"/>
</g>
<defs>
<clipPath id="clip0_41_340">
<rect width="33.28" height="32" fill="#82B93A" transform="translate(0.360352 0.714355)"/>
</clipPath>
</defs>
</svg>
