<svg width="32" height="33" viewBox="0 0 32 33" fill="none" xmlns="http://www.w3.org/2000/svg">
<g clip-path="url(#clip0_41_324)">
<path d="M13.0464 7.83379C14.0781 5.68433 16.3058 4.1886 18.8976 4.1886C22.486 4.1886 25.3616 7.04845 25.3616 10.5353C25.3616 10.7922 25.3461 11.045 25.3161 11.293C25.2431 11.897 25.6053 12.469 26.1826 12.6612C27.3547 13.0513 28.1776 14.1352 28.1776 15.3886C28.1776 16.9608 26.878 18.2686 25.2336 18.2686H22.4176C21.7107 18.2686 21.1376 18.8417 21.1376 19.5486C21.1376 20.2555 21.7107 20.8286 22.4176 20.8286H25.2336C28.2549 20.8286 30.7376 18.4114 30.7376 15.3886C30.7376 13.3398 29.5949 11.5682 27.921 10.6405C27.9214 10.6055 27.9216 10.5704 27.9216 10.5353C27.9216 5.5979 23.8629 1.6286 18.8976 1.6286C15.6657 1.6286 12.8244 3.30703 11.2301 5.83675C10.9741 5.80495 10.7135 5.7886 10.4496 5.7886C7.69839 5.7886 5.34932 7.56113 4.54108 10.0349C1.98127 10.4909 0.0175781 12.7003 0.0175781 15.3886C0.0175781 18.4114 2.5003 20.8286 5.52158 20.8286H8.33758C9.0445 20.8286 9.61758 20.2555 9.61758 19.5486C9.61758 18.8417 9.0445 18.2686 8.33758 18.2686H5.52158C3.87716 18.2686 2.57758 16.9608 2.57758 15.3886C2.57758 13.8164 3.87716 12.5086 5.52158 12.5086H5.57148C6.20734 12.5086 6.7468 12.0418 6.83819 11.4126C7.0876 9.69535 8.59722 8.3486 10.4496 8.3486C10.8254 8.3486 11.1856 8.40387 11.5234 8.50558C12.1272 8.68741 12.7735 8.40233 13.0464 7.83379Z" fill="#82B93A"/>
<path d="M15.3776 15.6446C16.0845 15.6446 16.6576 16.2177 16.6576 16.9246V27.9144L18.6965 25.8755C19.1963 25.3756 20.0068 25.3756 20.5067 25.8755C21.0065 26.3754 21.0065 27.1858 20.5067 27.6857L16.2827 31.9097C15.7828 32.4096 14.9723 32.4096 14.4725 31.9097L10.2485 27.6857C9.74861 27.1858 9.74861 26.3754 10.2485 25.8755C10.7483 25.3756 11.5588 25.3756 12.0587 25.8755L14.0976 27.9144V16.9246C14.0976 16.2177 14.6706 15.6446 15.3776 15.6446Z" fill="#82B93A"/>
</g>
<defs>
<clipPath id="clip0_41_324">
<rect width="32" height="32" fill="white" transform="translate(0.0078125 0.714294)"/>
</clipPath>
</defs>
</svg>
