<svg width="24" height="33" viewBox="0 0 24 33" fill="none" xmlns="http://www.w3.org/2000/svg">
<path d="M15.8318 32.7091H0.493085C0.216006 32.7091 -0.00878906 32.4843 -0.00878906 32.2072V1.21617C-0.00878906 0.93909 0.216006 0.714294 0.493085 0.714294H23.5063C23.6422 0.714294 23.7677 0.766573 23.8618 0.860675C23.9559 0.954777 24.0082 1.08547 24.0082 1.21617L23.9193 24.5379C23.9193 24.6686 23.867 24.794 23.7729 24.8881L16.1925 32.5575C16.0984 32.6516 15.9677 32.7091 15.837 32.7091H15.8318ZM0.994968 31.7001H15.6226L22.9103 24.3287L22.994 1.71806H0.989735V31.7001H0.994968Z" fill="#82B93A"/>
<path d="M15.8313 32.7091C15.7686 32.7091 15.7006 32.6986 15.6379 32.6725C15.4497 32.5941 15.3242 32.4111 15.3242 32.2072V28.3908C15.3242 25.3796 16.6521 24.036 19.6268 24.036H23.4066C23.6105 24.036 23.7934 24.1563 23.8718 24.3445C23.9503 24.5327 23.9084 24.747 23.7673 24.8934L16.1868 32.5627C16.0927 32.6621 15.962 32.7143 15.8313 32.7143V32.7091ZM19.632 25.0398C17.2272 25.0398 16.3332 25.9442 16.3332 28.3856V30.9787L22.2041 25.0398H19.6268H19.632Z" fill="#82B93A"/>
<path d="M23.4539 1.22144H0.540039V8.96919H23.4539V1.22144Z" fill="#82B93A"/>
<path d="M7.38834 7.29099H6.52051V6.52248H7.38834V7.29099ZM9.14492 5.69125V7.29099H8.27708V2.88908H10.018C10.5146 2.88908 10.9067 3.02501 11.1995 3.28118C11.4818 3.53734 11.6282 3.87194 11.6282 4.30062C11.6282 4.72931 11.4818 5.05867 11.1995 5.31484C10.9067 5.56055 10.5146 5.69125 10.018 5.69125H9.15014H9.14492ZM9.14492 5.01161H10.0128C10.2585 5.01161 10.431 4.9541 10.5617 4.81295C10.6871 4.68225 10.7447 4.50451 10.7447 4.30062C10.7447 4.09674 10.6871 3.91376 10.5617 3.77783C10.4467 3.63668 10.2585 3.5687 10.0128 3.5687H9.14492V5.00638V5.01161ZM12.2607 7.29099V2.88908H13.7559C14.2944 2.88908 14.7335 3.06683 15.0734 3.41187C15.4132 3.74646 15.5909 4.19083 15.5909 4.73453V5.45599C15.5909 5.99969 15.4132 6.44406 15.0734 6.77865C14.7335 7.12369 14.2892 7.29099 13.7559 7.29099H12.2607ZM13.139 3.5687V6.60613H13.7141C14.0278 6.60613 14.2683 6.49634 14.446 6.28722C14.6238 6.07288 14.7074 5.79579 14.7074 5.45075V4.71885C14.7074 4.37381 14.6185 4.09673 14.446 3.88761C14.2683 3.66804 14.0278 3.56349 13.7141 3.56349H13.139V3.5687ZM18.9734 5.46122H17.1436V7.28575H16.2758V2.88385H19.2766V3.56349H17.1436V4.77637H18.9734V5.45599V5.46122Z" fill="#82B93A"/>
<path d="M16.1452 20.2039C15.6591 20.2039 15.0631 20.2719 14.3678 20.4026C13.4006 19.357 12.3916 17.8462 11.6806 16.3562C12.3864 13.3449 12.0309 12.9215 11.874 12.7228C11.7068 12.5085 11.4715 12.1582 11.2101 12.1582C11.0951 12.1582 10.7919 12.2052 10.6716 12.2471C10.358 12.3569 10.2011 12.5921 10.0652 12.9006C9.69401 13.7893 10.2116 15.2897 10.7291 16.4555C10.2795 18.2696 9.52672 20.434 8.72685 22.201C6.72456 23.1263 5.65807 24.036 5.5692 24.9038C5.5326 25.2175 5.61102 25.6828 6.15472 26.0958C6.3011 26.216 6.47885 26.2735 6.66183 26.2735C7.13234 26.2735 7.59239 25.9181 8.13609 25.1495C8.52819 24.5849 8.95688 23.8269 9.39602 22.8806C10.8128 22.2585 12.5641 21.6887 14.0645 21.3698C14.8958 22.1801 15.6486 22.5931 16.2916 22.5931C16.7621 22.5931 17.1699 22.3735 17.4627 21.9501C17.7659 21.5266 17.8339 21.1293 17.6666 20.8051C17.4627 20.4026 16.9608 20.2039 16.1348 20.2039H16.1452ZM6.67751 25.3743C6.4318 25.1757 6.44225 25.0502 6.45271 24.9979C6.48407 24.6999 6.94413 24.1771 8.07336 23.5393C7.21598 25.1391 6.75593 25.343 6.67751 25.3743ZM11.0167 13.1254C11.048 13.1149 11.5761 13.7161 11.0742 14.8453C10.3109 14.0664 10.9644 13.1463 11.0167 13.1254ZM9.92927 21.6834C10.4573 20.4026 10.9644 18.9702 11.3356 17.6475C11.9316 18.7245 12.6425 19.77 13.3588 20.6065C12.2348 20.8731 11.0324 21.26 9.92927 21.6834ZM16.7517 21.4377C16.5844 21.6678 16.2341 21.6678 16.1086 21.6678C15.8263 21.6678 15.727 21.5005 15.2983 21.1659C15.6486 21.1293 15.9832 21.1188 16.255 21.1188C16.7255 21.1188 16.804 21.1868 16.8719 21.2182C16.8615 21.2547 16.8301 21.3279 16.7569 21.443L16.7517 21.4377Z" fill="#82B93A"/>
</svg>
