<svg width="33" height="33" viewBox="-6 -6 33 33" fill="none" xmlns="http://www.w3.org/2000/svg">
<g id="24 / basic / zoom-in">
<path id="icon" fill-rule="evenodd" clip-rule="evenodd" d="M0.5 8.41486C0.5 12.8636 4.08172 16.47 8.5 16.47C10.3487 16.47 12.051 15.8386 13.4056 14.7783L18.7929 20.2026L20.2071 18.7787L14.8199 13.3543C15.8729 11.9903 16.5 10.2763 16.5 8.41486C16.5 3.96614 12.9183 0.359741 8.5 0.359741C4.08172 0.359741 0.5 3.96614 0.5 8.41486ZM8.5 14.4562C11.8137 14.4562 14.5 11.7514 14.5 8.41486C14.5 5.07832 11.8137 2.37352 8.5 2.37352C5.18629 2.37352 2.5 5.07832 2.5 8.41486C2.5 11.7514 5.18629 14.4562 8.5 14.4562ZM7.5 4.3873V7.40797H4.5V9.42175H7.5V12.4424H9.5V9.42175H12.5V7.40797H9.5V4.3873H7.5Z" fill="#82B93A"/>
</g>
</svg>
